<svg xmlns="http://www.w3.org/2000/svg" viewBox="0 0 512 512" fill="#e63946">
  <path d="M499.7 273.6l-23.2-23.2c-6-6-14.1-9.4-22.6-9.4H58.1c-8.5 0-16.6 3.4-22.6 9.4l-23.2 23.2C4.7 279.6 0 288.2 0 297.4V416c0 17.7 14.3 32 32 32h16c17.7 0 32-14.3 32-32v-16h352v16c0 17.7 14.3 32 32 32h16c17.7 0 32-14.3 32-32V297.4c0-9.2-4.7-17.8-12.3-23.8zM96 368c-17.7 0-32-14.3-32-32s14.3-32 32-32 32 14.3 32 32-14.3 32-32 32zm320 0c-17.7 0-32-14.3-32-32s14.3-32 32-32 32 14.3 32 32-14.3 32-32 32zM64 256V144c0-8.8 7.2-16 16-16h352c8.8 0 16 7.2 16 16v112H64z"/>
</svg>
